<?xml version="1.0" encoding="utf-8"?>
<svg xmlns="http://www.w3.org/2000/svg" style="margin: auto; display: block; shape-rendering: auto;" width="265" height="65" preserveAspectRatio="xMidYMid">
<style type="text/css">
  text {
    text-anchor: middle; font-size: 28px; opacity: 0;
  }
</style>
<g style="transform-origin: 132.5px 32.5px; transform: scale(0.233333);">
<g transform="translate(132.5,32.5)">
  <g transform="translate(0,0)"><g class="path" style="transform: scale(1); transform-origin: -466.14px -9.93328px; animation: 3.33333s linear -2.05333s infinite normal forwards running beat-c49f5488-dc41-488c-8bdc-5ab8ed14f622;"><path d="M83.52-17.76L83.52-17.76L83.52-17.76Q85.56-16.44 86.64-13.20L86.64-13.20L86.64-13.20Q69.96 2.40 52.80 2.40L52.80 2.40L52.80 2.40Q41.04 2.40 32.28-1.86L32.28-1.86L32.28-1.86Q23.52-6.12 17.76-13.14L17.76-13.14L17.76-13.14Q12-20.16 9.18-29.10L9.18-29.10L9.18-29.10Q6.36-38.04 6.36-47.40L6.36-47.40L6.36-47.40Q6.36-56.88 9.60-65.94L9.60-65.94L9.60-65.94Q12.84-75 19.08-82.14L19.08-82.14L19.08-82.14Q25.32-89.28 34.50-93.60L34.50-93.60L34.50-93.60Q43.68-97.92 55.44-97.92L55.44-97.92L55.44-97.92Q70.92-97.92 84.24-90.72L84.24-90.72L84.24-67.68L84.24-67.68Q82.08-67.32 80.40-67.32L80.40-67.32L80.40-67.32Q78.60-67.32 77.40-67.68L77.40-67.68L73.56-87.72L73.56-87.72Q66.24-92.52 54-92.52L54-92.52L54-92.52Q46.44-92.52 40.38-89.10L40.38-89.10L40.38-89.10Q34.32-85.68 30.06-79.86L30.06-79.86L30.06-79.86Q25.80-74.04 23.52-66.18L23.52-66.18L23.52-66.18Q21.24-58.32 21.24-49.44L21.24-49.44L21.24-49.44Q21.24-39.96 23.46-31.92L23.46-31.92L23.46-31.92Q25.68-23.88 29.76-18L29.76-18L29.76-18Q33.84-12.12 39.66-8.82L39.66-8.82L39.66-8.82Q45.48-5.52 52.68-5.52L52.68-5.52L52.68-5.52Q61.32-5.52 69.36-8.88L69.36-8.88L69.36-8.88Q77.40-12.24 83.52-17.76" fill="#ffffff" stroke="none" stroke-width="none" transform="translate(-512.6400146484375,37.82671893310546)" style="fill: rgb(255, 255, 255);"></path></g><g class="path" style="transform: scale(1); transform-origin: -383.94px -10.8933px; animation: 3.33333s linear -1.90667s infinite normal forwards running beat-c49f5488-dc41-488c-8bdc-5ab8ed14f622;"><path d="M103.56-20.88L103.56-77.88L103.56-77.88Q103.56-85.80 103.20-89.64L103.20-89.64L93.72-90.84L93.72-90.84Q93.24-92.64 93.72-95.40L93.72-95.40L93.72-95.40Q101.76-96 114.24-97.92L114.24-97.92L114.24-97.92Q115.32-96.72 115.44-95.52L115.44-95.52L115.44-95.52Q114.84-92.40 114.84-76.08L114.84-76.08L114.84-53.40L114.84-53.40Q123.72-65.64 136.20-65.64L136.20-65.64L136.20-65.64Q143.64-65.64 148.92-61.92L148.92-61.92L148.92-61.92Q154.20-58.20 154.20-49.20L154.20-49.20L154.20-6.12L163.92-4.32L163.92-4.32Q164.40-2.40 163.92 0.48L163.92 0.48L163.92 0.48Q156.36 0.12 148.56 0.12L148.56 0.12L148.56 0.12Q143.04 0.12 132.96 0.36L132.96 0.36L132.96 0.36Q132.24-1.92 132.96-4.32L132.96-4.32L142.44-5.64L142.44-5.64Q142.92-12.24 142.92-20.88L142.92-20.88L142.92-43.20L142.92-43.20Q142.92-51.60 140.82-55.32L140.82-55.32L140.82-55.32Q138.72-59.04 133.20-59.04L133.20-59.04L133.20-59.04Q128.64-59.04 123.66-55.68L123.66-55.68L123.66-55.68Q118.68-52.32 114.84-45.96L114.84-45.96L114.84-6.12L124.56-4.32L124.56-4.32Q125.04-2.40 124.56 0.48L124.56 0.48L124.56 0.48Q117 0.12 109.20 0.12L109.20 0.12L109.20 0.12Q103.68 0.12 93.60 0.36L93.60 0.36L93.60 0.36Q92.88-1.92 93.60-4.32L93.60-4.32L103.08-5.64L103.08-5.64Q103.56-12.24 103.56-20.88L103.56-20.88" fill="#ffffff" stroke="none" stroke-width="none" transform="translate(-512.6400146484375,37.82671893310546)" style="fill: rgb(255, 255, 255);"></path></g><g class="path" style="transform: scale(1); transform-origin: -312.78px 5.78672px; animation: 3.33333s linear -1.76s infinite normal forwards running beat-c49f5488-dc41-488c-8bdc-5ab8ed14f622;"><path d="M182.04-15.96L182.04-15.96L182.04-15.96Q182.04-9.72 184.32-7.14L184.32-7.14L184.32-7.14Q186.60-4.56 191.52-4.56L191.52-4.56L191.52-4.56Q195.12-4.56 199.50-6.78L199.50-6.78L199.50-6.78Q203.88-9 207.60-13.20L207.60-13.20L207.60-31.92L207.60-31.92Q195.24-31.20 188.64-27.54L188.64-27.54L188.64-27.54Q182.04-23.88 182.04-15.96zM207.60-36.24L207.60-36.24L207.60-42.36L207.60-42.36Q207.60-52.56 205.26-57.18L205.26-57.18L205.26-57.18Q202.92-61.80 197.52-61.80L197.52-61.80L197.52-61.80Q192.00-61.80 188.64-58.26L188.64-58.26L188.64-58.26Q185.28-54.72 184.08-46.20L184.08-46.20L184.08-46.20Q180.24-45.36 178.44-45.36L178.44-45.36L178.44-45.36Q173.76-45.36 172.92-48.72L172.92-48.72L172.92-48.72Q172.92-56.88 180.00-61.68L180.00-61.68L180.00-61.68Q187.08-66.48 197.64-66.48L197.64-66.48L197.64-66.48Q209.28-66.48 214.14-61.74L214.14-61.74L214.14-61.74Q219.00-57 219.00-44.76L219.00-44.76L219.00-10.92L219.00-10.92Q219.00-7.92 219.36-5.76L219.36-5.76L228.84-4.56L228.84-4.56Q229.32-2.76 228.84 0L228.84 0L228.84 0Q220.32 0.36 210.72 1.68L210.72 1.68L210.72 1.68Q209.76 0.72 209.52-0.72L209.52-0.72L208.92-9L208.92-9Q198.96 2.40 186.72 2.40L186.72 2.40L186.72 2.40Q179.16 2.40 174.90-1.92L174.90-1.92L174.90-1.92Q170.64-6.24 170.64-13.56L170.64-13.56L170.64-13.56Q170.64-24.60 180.66-30.24L180.66-30.24L180.66-30.24Q190.68-35.88 207.60-36.24" fill="#ffffff" stroke="none" stroke-width="none" transform="translate(-512.6400146484375,37.82671893310546)" style="fill: rgb(255, 255, 255);"></path></g><g class="path" style="transform: scale(1); transform-origin: -255.42px 4.82672px; animation: 3.33333s linear -1.61333s infinite normal forwards running beat-c49f5488-dc41-488c-8bdc-5ab8ed14f622;"><path d="M255.48-64.08L255.48-64.08L255.24-51.72L255.24-51.72Q258.24-57.24 263.58-61.86L263.58-61.86L263.58-61.86Q268.92-66.48 273.72-66.48L273.72-66.48L273.72-66.48Q277.44-66.48 280.32-65.64L280.32-65.64L280.32-65.64Q281.28-64.08 281.28-61.56L281.28-61.56L281.28-61.56Q281.28-57.60 279.60-53.64L279.60-53.64L279.60-53.64Q275.28-54.84 271.32-54.84L271.32-54.84L271.32-54.84Q261.48-54.84 255.12-45.24L255.12-45.24L254.88-24.24L254.88-6.12L268.20-4.32L268.20-4.32Q268.68-2.40 268.20 0.48L268.20 0.48L268.20 0.48Q260.64 0.12 250.92 0.12L250.92 0.12L250.92 0.12Q243.60 0.12 233.52 0.36L233.52 0.36L233.52 0.36Q232.80-1.92 233.52-4.32L233.52-4.32L243.00-5.64L243.00-5.64Q243.48-12.24 243.48-20.88L243.48-20.88L243.48-53.76L243.48-53.76Q243.48-56.16 243.12-58.20L243.12-58.20L233.64-59.40L233.64-59.40Q233.16-61.20 233.64-63.96L233.64-63.96L233.64-63.96Q241.92-64.56 254.28-66.48L254.28-66.48L254.28-66.48Q255.36-65.28 255.48-64.08" fill="#ffffff" stroke="none" stroke-width="none" transform="translate(-512.6400146484375,37.82671893310546)" style="fill: rgb(255, 255, 255);"></path></g><g class="path" style="transform: scale(1); transform-origin: -212.76px -10.8933px; animation: 3.33333s linear -1.46667s infinite normal forwards running beat-c49f5488-dc41-488c-8bdc-5ab8ed14f622;"><path d="M305.76-76.08L305.76-76.08L305.76-6.12L315.48-4.32L315.48-4.32Q315.96-2.40 315.48 0.48L315.48 0.48L315.48 0.48Q307.92 0.12 300.00 0.12L300.00 0.12L300.00 0.12Q294.48 0.12 284.40 0.36L284.40 0.36L284.40 0.36Q283.68-1.92 284.40-4.32L284.40-4.32L293.88-5.64L293.88-5.64Q294.36-12.24 294.36-20.88L294.36-20.88L294.36-89.64L284.52-90.84L284.52-90.84Q284.04-92.64 284.52-95.40L284.52-95.40L284.52-95.40Q292.80-96 305.16-97.92L305.16-97.92L305.16-97.92Q306.24-96.72 306.36-95.52L306.36-95.52L306.36-95.52Q305.76-92.40 305.76-76.08" fill="#ffffff" stroke="none" stroke-width="none" transform="translate(-512.6400146484375,37.82671893310546)" style="fill: rgb(255, 255, 255);"></path></g><g class="path" style="transform: scale(1); transform-origin: -159.12px 5.78672px; animation: 3.33333s linear -1.32s infinite normal forwards running beat-c49f5488-dc41-488c-8bdc-5ab8ed14f622;"><path d="M323.16-31.92L323.16-31.92L323.16-31.92Q323.16-39.12 325.26-45.42L325.26-45.42L325.26-45.42Q327.36-51.72 331.32-56.40L331.32-56.40L331.32-56.40Q335.28-61.08 340.86-63.78L340.86-63.78L340.86-63.78Q346.44-66.48 353.40-66.48L353.40-66.48L353.40-66.48Q360.24-66.48 365.88-63.78L365.88-63.78L365.88-63.78Q371.52-61.08 375.54-56.40L375.54-56.40L375.54-56.40Q379.56-51.72 381.72-45.42L381.72-45.42L381.72-45.42Q383.88-39.12 383.88-31.92L383.88-31.92L383.88-31.92Q383.88-24.48 381.66-18.24L381.66-18.24L381.66-18.24Q379.44-12 375.42-7.38L375.42-7.38L375.42-7.38Q371.40-2.76 365.76-0.18L365.76-0.18L365.76-0.18Q360.12 2.40 353.40 2.40L353.40 2.40L353.40 2.40Q346.32 2.40 340.74-0.12L340.74-0.12L340.74-0.12Q335.16-2.64 331.26-7.20L331.26-7.20L331.26-7.20Q327.36-11.76 325.26-18.06L325.26-18.06L325.26-18.06Q323.16-24.36 323.16-31.92zM340.68-54L340.68-54L340.68-54Q335.52-46.68 335.52-31.92L335.52-31.92L335.52-31.92Q335.52-24.60 336.90-19.08L336.90-19.08L336.90-19.08Q338.28-13.56 340.68-9.90L340.68-9.90L340.68-9.90Q343.08-6.24 346.32-4.44L346.32-4.44L346.32-4.44Q349.56-2.64 353.40-2.64L353.40-2.64L353.40-2.64Q357.12-2.64 360.48-4.44L360.48-4.44L360.48-4.44Q363.84-6.24 366.24-9.90L366.24-9.90L366.24-9.90Q368.64-13.56 370.08-19.08L370.08-19.08L370.08-19.08Q371.52-24.60 371.52-31.92L371.52-31.92L371.52-31.92Q371.52-39.24 370.08-44.82L370.08-44.82L370.08-44.82Q368.64-50.40 366.18-54.06L366.18-54.06L366.18-54.06Q363.72-57.72 360.42-59.58L360.42-59.58L360.42-59.58Q357.12-61.44 353.40-61.44L353.40-61.44L353.40-61.44Q345.96-61.44 340.68-54" fill="#ffffff" stroke="none" stroke-width="none" transform="translate(-512.6400146484375,37.82671893310546)" style="fill: rgb(255, 255, 255);"></path></g><g class="path" style="transform: scale(1); transform-origin: -101.82px -0.39328px; animation: 3.33333s linear -1.17333s infinite normal forwards running beat-c49f5488-dc41-488c-8bdc-5ab8ed14f622;"><path d="M411.84-78.48L411.84-78.48L411.84-61.32L428.76-61.32L428.76-61.32Q429.00-59.88 429.00-59.16L429.00-59.16L429.00-59.16Q429.00-58.08 428.76-56.64L428.76-56.64L411.84-54.12L411.84-21.12L411.84-21.12Q411.84-12.24 413.46-8.58L413.46-8.58L413.46-8.58Q415.08-4.92 418.56-4.92L418.56-4.92L418.56-4.92Q421.68-4.92 428.28-7.44L428.28-7.44L428.28-7.44Q429.48-6.36 429.96-3.36L429.96-3.36L429.96-3.36Q426.36-1.20 424.50-0.18L424.50-0.18L424.50-0.18Q422.64 0.84 419.82 1.62L419.82 1.62L419.82 1.62Q417.00 2.40 413.88 2.40L413.88 2.40L413.88 2.40Q407.88 2.40 404.10-2.22L404.10-2.22L404.10-2.22Q400.32-6.84 400.32-16.32L400.32-16.32L400.32-55.56L391.92-56.64L391.92-56.64Q391.68-57.84 391.68-58.68L391.68-58.68L391.68-58.68Q391.68-59.64 391.92-61.32L391.92-61.32L391.92-61.32Q395.28-61.92 397.74-63.42L397.74-63.42L397.74-63.42Q400.20-64.92 401.88-67.62L401.88-67.62L401.88-67.62Q403.56-70.32 404.46-72.42L404.46-72.42L404.46-72.42Q405.36-74.52 406.68-78.48L406.68-78.48L406.68-78.48Q407.76-78.84 409.32-78.84L409.32-78.84L409.32-78.84Q410.76-78.84 411.84-78.48" fill="#ffffff" stroke="none" stroke-width="none" transform="translate(-512.6400146484375,37.82671893310546)" style="fill: rgb(255, 255, 255);"></path></g><g class="path" style="transform: scale(1); transform-origin: -59.1px -0.39328px; animation: 3.33333s linear -1.02667s infinite normal forwards running beat-c49f5488-dc41-488c-8bdc-5ab8ed14f622;"><path d="M454.56-78.48L454.56-78.48L454.56-61.32L471.48-61.32L471.48-61.32Q471.72-59.88 471.72-59.16L471.72-59.16L471.72-59.16Q471.72-58.08 471.48-56.64L471.48-56.64L454.56-54.12L454.56-21.12L454.56-21.12Q454.56-12.24 456.18-8.58L456.18-8.58L456.18-8.58Q457.80-4.92 461.28-4.92L461.28-4.92L461.28-4.92Q464.40-4.92 471-7.44L471-7.44L471-7.44Q472.20-6.36 472.68-3.36L472.68-3.36L472.68-3.36Q469.08-1.20 467.22-0.18L467.22-0.18L467.22-0.18Q465.36 0.84 462.54 1.62L462.54 1.62L462.54 1.62Q459.72 2.40 456.60 2.40L456.60 2.40L456.60 2.40Q450.60 2.40 446.82-2.22L446.82-2.22L446.82-2.22Q443.04-6.84 443.04-16.32L443.04-16.32L443.04-55.56L434.64-56.64L434.64-56.64Q434.40-57.84 434.40-58.68L434.40-58.68L434.40-58.68Q434.40-59.64 434.64-61.32L434.64-61.32L434.64-61.32Q438-61.92 440.46-63.42L440.46-63.42L440.46-63.42Q442.92-64.92 444.60-67.62L444.60-67.62L444.60-67.62Q446.28-70.32 447.18-72.42L447.18-72.42L447.18-72.42Q448.08-74.52 449.40-78.48L449.40-78.48L449.40-78.48Q450.48-78.84 452.04-78.84L452.04-78.84L452.04-78.84Q453.48-78.84 454.56-78.48" fill="#ffffff" stroke="none" stroke-width="none" transform="translate(-512.6400146484375,37.82671893310546)" style="fill: rgb(255, 255, 255);"></path></g><g class="path" style="transform: scale(1); transform-origin: -6.54001px 5.78672px; animation: 3.33333s linear -0.88s infinite normal forwards running beat-c49f5488-dc41-488c-8bdc-5ab8ed14f622;"><path d="M529.80-33.84L529.80-33.84L492.12-33.84L492.12-33.84Q491.04-3.24 510.48-3.24L510.48-3.24L510.48-3.24Q518.76-3.24 527.40-10.56L527.40-10.56L527.40-10.56Q529.20-9.48 530.16-6.84L530.16-6.84L530.16-6.84Q521.88 2.40 509.16 2.40L509.16 2.40L509.16 2.40Q479.88 2.40 479.88-32.04L479.88-32.04L479.88-32.04Q479.88-48.36 488.52-57.42L488.52-57.42L488.52-57.42Q497.16-66.48 508.68-66.48L508.68-66.48L508.68-66.48Q521.28-66.48 526.80-57.72L526.80-57.72L526.80-57.72Q532.32-48.96 532.32-34.92L532.32-34.92L532.32-34.92Q531.12-33.96 529.80-33.84zM508.44-61.68L508.44-61.68L508.44-61.68Q502.20-61.68 497.82-55.20L497.82-55.20L497.82-55.20Q493.44-48.72 492.48-38.64L492.48-38.64L507.36-38.64L507.36-38.64Q516.24-38.64 520.08-39.72L520.08-39.72L520.08-39.72Q520.08-49.56 517.08-55.62L517.08-55.62L517.08-55.62Q514.08-61.68 508.44-61.68" fill="#ffffff" stroke="none" stroke-width="none" transform="translate(-512.6400146484375,37.82671893310546)" style="fill: rgb(255, 255, 255);"></path></g><g class="path" style="transform: scale(1); transform-origin: 99.06px -9.75328px; animation: 3.33333s linear -0.733333s infinite normal forwards running beat-c49f5488-dc41-488c-8bdc-5ab8ed14f622;"><path d="M570.12-67.68L570.24-95.52L653.16-95.52L653.28-67.68L653.28-67.68Q650.64-67.20 648.84-67.68L648.84-67.68L643.20-89.40L618.24-89.40L618.24-5.28L630.36-4.08L630.36-4.08Q630.84-2.28 630.36 0.36L630.36 0.36L630.36 0.36Q622.80 0 612.12 0L612.12 0L612.12 0Q603.84 0 593.76 0.24L593.76 0.24L593.76 0.24Q593.04-1.92 593.76-4.08L593.76-4.08L604.92-5.52L604.92-5.52Q605.40-10.08 605.40-19.56L605.40-19.56L605.40-89.40L580.20-89.40L574.56-67.68L574.56-67.68Q572.76-67.20 570.12-67.68L570.12-67.68" fill="#ffffff" stroke="none" stroke-width="none" transform="translate(-512.6400146484375,37.82671893310546)" style="fill: rgb(255, 255, 255);"></path></g><g class="path" style="transform: scale(1); transform-origin: 181.26px -10.8933px; animation: 3.33333s linear -0.586667s infinite normal forwards running beat-c49f5488-dc41-488c-8bdc-5ab8ed14f622;"><path d="M668.76-20.88L668.76-77.88L668.76-77.88Q668.76-85.80 668.40-89.64L668.40-89.64L658.92-90.84L658.92-90.84Q658.44-92.64 658.92-95.40L658.92-95.40L658.92-95.40Q666.96-96 679.44-97.92L679.44-97.92L679.44-97.92Q680.52-96.72 680.64-95.52L680.64-95.52L680.64-95.52Q680.04-92.40 680.04-76.08L680.04-76.08L680.04-53.40L680.04-53.40Q688.92-65.64 701.40-65.64L701.40-65.64L701.40-65.64Q708.84-65.64 714.12-61.92L714.12-61.92L714.12-61.92Q719.40-58.20 719.40-49.20L719.40-49.20L719.40-6.12L729.12-4.32L729.12-4.32Q729.60-2.40 729.12 0.48L729.12 0.48L729.12 0.48Q721.56 0.12 713.76 0.12L713.76 0.12L713.76 0.12Q708.24 0.12 698.16 0.36L698.16 0.36L698.16 0.36Q697.44-1.92 698.16-4.32L698.16-4.32L707.64-5.64L707.64-5.64Q708.12-12.24 708.12-20.88L708.12-20.88L708.12-43.20L708.12-43.20Q708.12-51.60 706.02-55.32L706.02-55.32L706.02-55.32Q703.92-59.04 698.40-59.04L698.40-59.04L698.40-59.04Q693.84-59.04 688.86-55.68L688.86-55.68L688.86-55.68Q683.88-52.32 680.04-45.96L680.04-45.96L680.04-6.12L689.76-4.32L689.76-4.32Q690.24-2.40 689.76 0.48L689.76 0.48L689.76 0.48Q682.20 0.12 674.40 0.12L674.40 0.12L674.40 0.12Q668.88 0.12 658.80 0.36L658.80 0.36L658.80 0.36Q658.08-1.92 658.80-4.32L658.80-4.32L668.28-5.64L668.28-5.64Q668.76-12.24 668.76-20.88L668.76-20.88" fill="#ffffff" stroke="none" stroke-width="none" transform="translate(-512.6400146484375,37.82671893310546)" style="fill: rgb(255, 255, 255);"></path></g><g class="path" style="transform: scale(1); transform-origin: 253.92px 5.78672px; animation: 3.33333s linear -0.44s infinite normal forwards running beat-c49f5488-dc41-488c-8bdc-5ab8ed14f622;"><path d="M736.20-31.92L736.20-31.92L736.20-31.92Q736.20-39.12 738.30-45.42L738.30-45.42L738.30-45.42Q740.40-51.72 744.36-56.40L744.36-56.40L744.36-56.40Q748.32-61.08 753.90-63.78L753.90-63.78L753.90-63.78Q759.48-66.48 766.44-66.48L766.44-66.48L766.44-66.48Q773.28-66.48 778.92-63.78L778.92-63.78L778.92-63.78Q784.56-61.08 788.58-56.40L788.58-56.40L788.58-56.40Q792.60-51.72 794.76-45.42L794.76-45.42L794.76-45.42Q796.92-39.12 796.92-31.92L796.92-31.92L796.92-31.92Q796.92-24.48 794.70-18.24L794.70-18.24L794.70-18.24Q792.48-12 788.46-7.38L788.46-7.38L788.46-7.38Q784.44-2.76 778.80-0.18L778.80-0.18L778.80-0.18Q773.16 2.40 766.44 2.40L766.44 2.40L766.44 2.40Q759.36 2.40 753.78-0.12L753.78-0.12L753.78-0.12Q748.20-2.64 744.30-7.20L744.30-7.20L744.30-7.20Q740.40-11.76 738.30-18.06L738.30-18.06L738.30-18.06Q736.20-24.36 736.20-31.92zM753.72-54L753.72-54L753.72-54Q748.56-46.68 748.56-31.92L748.56-31.92L748.56-31.92Q748.56-24.60 749.94-19.08L749.94-19.08L749.94-19.08Q751.32-13.56 753.72-9.90L753.72-9.90L753.72-9.90Q756.12-6.24 759.36-4.44L759.36-4.44L759.36-4.44Q762.60-2.64 766.44-2.64L766.44-2.64L766.44-2.64Q770.16-2.64 773.52-4.44L773.52-4.44L773.52-4.44Q776.88-6.24 779.28-9.90L779.28-9.90L779.28-9.90Q781.68-13.56 783.12-19.08L783.12-19.08L783.12-19.08Q784.56-24.60 784.56-31.92L784.56-31.92L784.56-31.92Q784.56-39.24 783.12-44.82L783.12-44.82L783.12-44.82Q781.68-50.40 779.22-54.06L779.22-54.06L779.22-54.06Q776.76-57.72 773.46-59.58L773.46-59.58L773.46-59.58Q770.16-61.44 766.44-61.44L766.44-61.44L766.44-61.44Q759-61.44 753.72-54" fill="#ffffff" stroke="none" stroke-width="none" transform="translate(-512.6400146484375,37.82671893310546)" style="fill: rgb(255, 255, 255);"></path></g><g class="path" style="transform: scale(1); transform-origin: 348px 4.82672px; animation: 3.33333s linear -0.293333s infinite normal forwards running beat-c49f5488-dc41-488c-8bdc-5ab8ed14f622;"><path d="M894.72-20.88L894.72-42.84L894.72-42.84Q894.72-59.52 884.04-59.52L884.04-59.52L884.04-59.52Q874.92-59.52 866.76-46.92L866.76-46.92L866.76-6.12L876.48-4.32L876.48-4.32Q876.96-2.40 876.48 0.48L876.48 0.48L876.48 0.48Q868.92 0.12 861.12 0.12L861.12 0.12L861.12 0.12Q855.60 0.12 845.52 0.36L845.52 0.36L845.52 0.36Q844.80-1.92 845.52-4.32L845.52-4.32L855.00-5.64L855.00-5.64Q855.48-12.24 855.48-20.88L855.48-20.88L855.48-42.84L855.48-42.84Q855.48-59.52 844.80-59.52L844.80-59.52L844.80-59.52Q839.40-59.52 835.32-56.22L835.32-56.22L835.32-56.22Q831.24-52.92 826.92-45.96L826.92-45.96L826.92-6.12L836.64-4.32L836.64-4.32Q837.12-2.40 836.64 0.48L836.64 0.48L836.64 0.48Q829.08 0.12 821.28 0.12L821.28 0.12L821.28 0.12Q815.76 0.12 805.68 0.36L805.68 0.36L805.68 0.36Q804.96-1.92 805.68-4.32L805.68-4.32L815.16-5.64L815.16-5.64Q815.64-12.24 815.64-20.88L815.64-20.88L815.64-53.76L815.64-53.76Q815.64-56.16 815.28-58.20L815.28-58.20L805.80-59.40L805.80-59.40Q805.32-61.20 805.80-63.96L805.80-63.96L805.80-63.96Q813.84-64.56 826.32-66.48L826.32-66.48L826.32-66.48Q827.40-65.28 827.52-64.08L827.52-64.08L827.52-64.08Q826.92-60.96 826.92-53.40L826.92-53.40L826.92-53.40Q836.40-66.48 848.28-66.48L848.28-66.48L848.28-66.48Q854.52-66.48 859.68-63.30L859.68-63.30L859.68-63.30Q864.84-60.12 866.28-53.52L866.28-53.52L866.28-53.52Q875.88-66.48 887.52-66.48L887.52-66.48L887.52-66.48Q894.84-66.48 900.42-62.16L900.42-62.16L900.42-62.16Q906.00-57.84 906.00-48.84L906.00-48.84L906.00-6.12L915.72-4.32L915.72-4.32Q916.20-2.40 915.72 0.48L915.72 0.48L915.72 0.48Q908.16 0.12 900.36 0.12L900.36 0.12L900.36 0.12Q894.84 0.12 884.76 0.36L884.76 0.36L884.76 0.36Q884.04-1.92 884.76-4.32L884.76-4.32L894.24-5.64L894.24-5.64Q894.72-12.24 894.72-20.88L894.72-20.88" fill="#ffffff" stroke="none" stroke-width="none" transform="translate(-512.6400146484375,37.82671893310546)" style="fill: rgb(255, 255, 255);"></path></g><g class="path" style="transform: scale(1); transform-origin: 438.78px 5.78672px; animation: 3.33333s linear -0.146667s infinite normal forwards running beat-c49f5488-dc41-488c-8bdc-5ab8ed14f622;"><path d="M933.60-15.96L933.60-15.96L933.60-15.96Q933.60-9.72 935.88-7.14L935.88-7.14L935.88-7.14Q938.16-4.56 943.08-4.56L943.08-4.56L943.08-4.56Q946.68-4.56 951.06-6.78L951.06-6.78L951.06-6.78Q955.44-9 959.16-13.20L959.16-13.20L959.16-31.92L959.16-31.92Q946.80-31.20 940.20-27.54L940.20-27.54L940.20-27.54Q933.60-23.88 933.60-15.96zM959.16-36.24L959.16-36.24L959.16-42.36L959.16-42.36Q959.16-52.56 956.82-57.18L956.82-57.18L956.82-57.18Q954.48-61.80 949.08-61.80L949.08-61.80L949.08-61.80Q943.56-61.80 940.20-58.26L940.20-58.26L940.20-58.26Q936.84-54.72 935.64-46.20L935.64-46.20L935.64-46.20Q931.80-45.36 930.00-45.36L930.00-45.36L930.00-45.36Q925.32-45.36 924.48-48.72L924.48-48.72L924.48-48.72Q924.48-56.88 931.56-61.68L931.56-61.68L931.56-61.68Q938.64-66.48 949.20-66.48L949.20-66.48L949.20-66.48Q960.84-66.48 965.70-61.74L965.70-61.74L965.70-61.74Q970.56-57 970.56-44.76L970.56-44.76L970.56-10.92L970.56-10.92Q970.56-7.92 970.92-5.76L970.92-5.76L980.40-4.56L980.40-4.56Q980.88-2.76 980.40 0L980.40 0L980.40 0Q971.88 0.36 962.28 1.68L962.28 1.68L962.28 1.68Q961.32 0.72 961.08-0.72L961.08-0.72L960.48-9L960.48-9Q950.52 2.40 938.28 2.40L938.28 2.40L938.28 2.40Q930.72 2.40 926.46-1.92L926.46-1.92L926.46-1.92Q922.20-6.24 922.20-13.56L922.20-13.56L922.20-13.56Q922.20-24.60 932.22-30.24L932.22-30.24L932.22-30.24Q942.24-35.88 959.16-36.24" fill="#ffffff" stroke="none" stroke-width="none" transform="translate(-512.6400146484375,37.82671893310546)" style="fill: rgb(255, 255, 255);"></path></g><g class="path" style="transform: scale(1); transform-origin: 496.62px 5.78672px; animation: 3.33333s linear 0s infinite normal forwards running beat-c49f5488-dc41-488c-8bdc-5ab8ed14f622;"><path d="M1008.12-2.88L1008.12-2.88L1008.12-2.88Q1014.60-2.88 1017.72-5.88L1017.72-5.88L1017.72-5.88Q1020.84-8.88 1020.84-12.84L1020.84-12.84L1020.84-12.84Q1020.84-15.12 1020.12-17.04L1020.12-17.04L1020.12-17.04Q1019.40-18.96 1017.78-20.76L1017.78-20.76L1017.78-20.76Q1016.16-22.56 1013.52-24.30L1013.52-24.30L1013.52-24.30Q1010.88-26.04 1006.92-28.08L1006.92-28.08L1006.92-28.08Q1002.00-30.60 998.46-32.88L998.46-32.88L998.46-32.88Q994.92-35.16 992.64-37.68L992.64-37.68L992.64-37.68Q990.36-40.20 989.22-43.08L989.22-43.08L989.22-43.08Q988.08-45.96 988.08-49.56L988.08-49.56L988.08-49.56Q988.08-53.88 989.64-57.06L989.64-57.06L989.64-57.06Q991.20-60.24 994.02-62.34L994.02-62.34L994.02-62.34Q996.84-64.44 1000.68-65.46L1000.68-65.46L1000.68-65.46Q1004.52-66.48 1009.20-66.48L1009.20-66.48L1009.20-66.48Q1018.56-66.48 1027.44-61.92L1027.44-61.92L1027.44-46.56L1021.80-46.56L1019.16-59.52L1019.16-59.52Q1013.88-62.04 1008.00-62.04L1008.00-62.04L1008.00-62.04Q998.16-62.04 998.16-54L998.16-54L998.16-54Q998.16-49.68 1001.40-46.08L1001.40-46.08L1001.40-46.08Q1004.64-42.48 1011.84-38.88L1011.84-38.88L1011.84-38.88Q1016.76-36.36 1020.48-34.08L1020.48-34.08L1020.48-34.08Q1024.20-31.80 1026.66-29.28L1026.66-29.28L1026.66-29.28Q1029.12-26.76 1030.38-23.82L1030.38-23.82L1030.38-23.82Q1031.64-20.88 1031.64-17.16L1031.64-17.16L1031.64-17.16Q1031.64-12.96 1029.84-9.36L1029.84-9.36L1029.84-9.36Q1028.04-5.76 1024.80-3.18L1024.80-3.18L1024.80-3.18Q1021.56-0.60 1017.00 0.90L1017.00 0.90L1017.00 0.90Q1012.44 2.40 1006.92 2.40L1006.92 2.40L1006.92 2.40Q996.24 2.40 986.88-2.16L986.88-2.16L986.88-17.52L992.52-17.52L995.16-5.64L995.16-5.64Q1001.28-2.88 1008.12-2.88" fill="#ffffff" stroke="none" stroke-width="none" transform="translate(-512.6400146484375,37.82671893310546)" style="fill: rgb(255, 255, 255);"></path></g></g>
</g>
</g>
<style id="beat-c49f5488-dc41-488c-8bdc-5ab8ed14f622" data-anikit="">@keyframes beat-c49f5488-dc41-488c-8bdc-5ab8ed14f622
{
  0% {
    animation-timing-function: cubic-bezier(0.1115,0.3729,0.0432,0.9474);
    transform: scale(1);
  }
  51% {
    animation-timing-function: cubic-bezier(0.9613,0.0769,0.8874,0.6288);
    transform: scale(0.73);
  }
  100% {
    transform: scale(1);
  }
}</style></svg>